#!OML:ASF F:\VICON\USERDATA\INSTALL\rory3\rory3.ASF
:FULLY-SPECIFIED
:DEGREES
132
root 0.20765162921820166 17.294438305627278 63.795954746770214 2.281692866920176 -2.9044222440906085 -2.87354091078034
lfemur -22.393299619847383 -2.38025963557636 -15.549260864691135
ltibia 52.65948015920946
lfoot -8.383813905992149 1.8644419475279652
ltoes -2.762835903482765
rfemur -22.023683425390136 1.9733562973449223 29.73742151314308
rtibia 46.93469473107604
rfoot 7.785461077116691 -8.869857108015285
rtoes 14.35697717296021
lowerback 12.569631018658209 0.1633965458900386 2.4537570773847106
upperback -0.6143749298107772 0.7348760085980978 2.5999580339978245
thorax -7.374074543292156 0.326126067040315 1.0362135968297408
lowerneck -18.045976132697625 -2.744707735287725 -3.3709995484436437
upperneck 18.63402000832642 -3.165004230981432 2.1114675849131976
head 8.808150497603595 -1.4747925905925392 0.9778695671983161
lclavicle -2.2629592637611343e-15 6.838305790976777e-16
lhumerus -43.749993610677905 -6.954572761637401 89.91631349355798
lradius 64.49496342813471
lwrist 17.25218569707922
lhand -24.84073771821366 13.399142246130891
lfingers 7.125019999999999
lthumb 1.406572982433413 43.0219807256948
rclavicle -2.2613619020865822e-15 6.849696126226778e-16
rhumerus -35.99144440526731 -4.002315205858441 -86.84621106209667
rradius 60.54989393872033
rwrist 1.0747968461410453
rhand -16.940664254391567 30.87012553410328
rfingers 7.125019999999999
rthumb 8.153432047915526 1.2030240449611442
133
root 0.2028321253934996 17.342839089160215 63.7389296024627 2.3282754803255674 -2.2783114530052595 -2.7372603839359875
lfemur -23.052105437488414 -2.743963480055399 -15.879895010465006
ltibia 50.77019380564511
lfoot -8.081550421024415 1.071951346781311
ltoes -3.921948676623782
rfemur -21.626034798588904 1.847636292940129 29.411294774191372
rtibia 45.70872896886756
rfoot 7.131828097497552 -10.11859132650527
rtoes 12.039116958200093
lowerback 12.448757643134412 0.014585512861019834 2.3883886133136913
upperback -0.6597081558193842 0.5067405114824165 2.546381511763889
thorax -7.346212647859744 0.20779339835305832 1.0394949227720875
lowerneck -18.08491984303112 -2.7532830060382576 -3.400655114731419
upperneck 18.69646545023271 -3.178802085795436 2.150905676964706
head 8.826948095194664 -1.4839949766200355 0.9924860423111233
lclavicle -2.2629435912073522e-15 6.83841218812267e-16
lhumerus -42.250480458637824 -8.095858762229014 90.2064987934945
lradius 65.49543217180657
lwrist 17.508608469137357
lhand -24.87173546735223 13.578303614044529
lfingers 7.125019999999999
lthumb 1.4300268504226223 43.217590758354554
rclavicle -2.261606627830467e-15 6.847980434985879e-16
rhumerus -36.29575504587865 -4.153682390102632 -86.85235915509077
rradius 60.33425387258192
rwrist 1.273174783111799
rhand -16.93507253974385 30.906699258299277
rfingers 7.125019999999999
rthumb 8.171905489442986 1.1861960333101769
134
root 0.19354070457866404 17.399783601038962 63.74555542371041 2.4028338495561825 -2.2957931604471704 -2.6924510358594316
lfemur -23.428069755272137 -2.586365378719912 -16.115149940132696
ltibia 48.76123521026788
lfoot -7.109877523484029 0.1114022052715602
ltoes -5.643952317175709
rfemur -21.583119629277896 2.339284563519526 29.126401802051273
rtibia 44.29552066463321
rfoot 6.304205528334567 -10.497887858525454
rtoes 9.830092383101245
lowerback 12.316986938084968 0.08140804877885188 2.2723394201893408
upperback -0.6968343495059219 0.5544022045072189 2.4710515850499117
thorax -7.321042354721659 0.234916293943065 1.0331848204763632
lowerneck -18.110057082147065 -2.7637715492507158 -3.453727047422607
upperneck 18.73856070862349 -3.18573183772453 2.220043223142551
head 8.836420033344849 -1.4855858930532815 1.0211140969040051
lclavicle -2.262322226225126e-15 6.842762163883908e-16
lhumerus -40.809351309011504 -9.24037407324989 90.43710593577363
lradius 66.84208211223807
lwrist 17.76323057234373
lhand -24.931517413687818 13.638633551549148
lfingers 7.125019999999999
lthumb 1.4391256401210133 43.306838636230225
rclavicle -2.2615373675628684e-15 6.848465956229715e-16
rhumerus -36.606440829644015 -4.299806558304461 -86.85103118456658
rradius 60.133104417008106
rwrist 1.4354547474124928
rhand -16.88826093207426 30.995403970227855
rfingers 7.125019999999999
rthumb 8.23188175610897 1.2582982591450513
135
root 0.18295912128863492 17.44512970292867 63.818083048198694 2.4566871926302176 -2.0961619369270283 -2.666757786131253
lfemur -23.535421930462476 -2.479292928397206 -16.41095043746473
ltibia 46.69249506409777
lfoot -5.7448062663835735 -1.02667933465287
ltoes -8.089230310124401
rfemur -21.403360145364687 2.602401956219419 28.870149989003277
rtibia 42.688612046245225
rfoot 5.244969238311221 -10.43786749894949
rtoes 7.63001050778788
lowerback 12.18250793965968 0.054160808353533985 2.248593125560943
upperback -0.7175136156783015 0.5022624903677281 2.3787834866631625
thorax -7.269466296834435 0.19737517865454818 0.9765690478791178
lowerneck -18.122065853286955 -2.7612612535943706 -3.512028921936877
upperneck 18.763094949263287 -3.183351864411226 2.272092763669422
head 8.836583766465413 -1.4788167037919224 1.0432516375319667
lclavicle -2.262204216233363e-15 6.843587372193015e-16
lhumerus -39.407124864137934 -10.228423652272825 90.59426320129046
lradius 68.4389931141895
lwrist 18.286512041103826
lhand -25.066751852718042 13.680871704122973
lfingers 7.125019999999999
lthumb 1.2912371235540956 43.25809208703401
rclavicle -2.2613005589099865e-15 6.850126006091266e-16
rhumerus -36.86564340710505 -4.357882714814678 -86.84118159120901
rradius 59.93253268068844
rwrist 1.5125935234531465
rhand -16.806450597008233 31.056798524931338
rfingers 7.125019999999999
rthumb 8.2765872105374 1.235270633036493
136
root 0.17134147661097818 17.519989423970678 63.98842833350685 2.3337381898106457 -1.8226171630228438 -2.5025230905896514
lfemur -23.357789264070455 -2.4048871042994726 -16.911589996682157
ltibia 44.69514049811592
lfoot -3.6216267214940405 -2.436441508460689
ltoes -10.357648026930589
rfemur -21.065087518627653 2.803546966281458 28.44393368052979
rtibia 40.74329710540306
rfoot 4.222924817366205 -10.054028095659294
rtoes 5.68663977728487
lowerback 12.11777089852148 0.010253591220368286 2.1368731354902835
upperback -0.7159587647476445 0.3766646410696054 2.2509284771607447
thorax -7.246203148049628 0.13605854521264243 1.0118299556752839
lowerneck -18.070007312067645 -2.7493385273024247 -3.6078674865962945
upperneck 18.8010942116979 -3.1594474337655805 2.320551184502217
head 8.833984679927136 -1.4721574767039967 1.0698874464247208
lclavicle -2.261882023047105e-15 6.845835209691795e-16
lhumerus -38.16551672348085 -10.914371697168683 90.67004891698036
lradius 70.14148595244178
lwrist 18.730720944303727
lhand -25.291838375173135 13.681567040607115
lfingers 7.125019999999999
lthumb 1.1057942021081653 43.23789435587591
rclavicle -2.2611255591088315e-15 6.851352748336079e-16
rhumerus -37.142698795813274 -4.40806576549656 -86.79548448275646
rradius 59.74790392955107
rwrist 1.5147034353222013
rhand -16.74030794808794 31.051153058824127
rfingers 7.125019999999999
rthumb 8.3879091543278 1.260595593409884
